<svg id="google_2_" data-name="google (2)" xmlns="http://www.w3.org/2000/svg" xmlns:xlink="http://www.w3.org/1999/xlink" width="21.193" height="26.545" viewBox="0 0 21.193 26.545">
  <defs>
    <linearGradient id="linear-gradient" x1="0.051" y1="0.06" x2="0.976" y2="0.799" gradientUnits="objectBoundingBox">
      <stop offset="0" stop-color="#7faef4"/>
      <stop offset="1" stop-color="#4c8df1"/>
    </linearGradient>
    <linearGradient id="linear-gradient-2" x1="0.908" y1="0.908" x2="0.098" y2="0.098" xlink:href="#linear-gradient"/>
    <linearGradient id="linear-gradient-3" x1="0.384" y1="0.403" x2="0.791" y2="0.83" gradientUnits="objectBoundingBox">
      <stop offset="0" stop-color="#4166bf"/>
      <stop offset="1" stop-color="#4256ac"/>
    </linearGradient>
    <linearGradient id="linear-gradient-4" x1="0.831" y1="0.75" x2="0.186" y2="0.167" gradientUnits="objectBoundingBox">
      <stop offset="0" stop-color="#4256ac" stop-opacity="0"/>
      <stop offset="1" stop-color="#1b1464"/>
    </linearGradient>
    <linearGradient id="linear-gradient-5" x1="-0.944" y1="-0.944" x2="1.522" y2="1.522" gradientUnits="objectBoundingBox">
      <stop offset="0" stop-color="#ebeff0"/>
      <stop offset="1" stop-color="#e3e5e4"/>
    </linearGradient>
    <linearGradient id="linear-gradient-6" x1="0.398" y1="0.136" x2="0.597" y2="0.802" xlink:href="#linear-gradient-5"/>
  </defs>
  <path id="Path_4987" data-name="Path 4987" d="M61.228.153A72.242,72.242,0,0,1,52.284,3.4a1.089,1.089,0,0,0-.867,1.068v6.62a17.251,17.251,0,0,0,6.364,13.382l1.243,1.011a4.737,4.737,0,0,0,5.979,0l1.243-1.011A17.252,17.252,0,0,0,72.61,11.089V4.47A1.089,1.089,0,0,0,71.743,3.4,72.238,72.238,0,0,1,62.8.153a2.091,2.091,0,0,0-1.571,0Z" transform="translate(-51.417 0)" fill="url(#linear-gradient)"/>
  <g id="Group_5958" data-name="Group 5958" transform="translate(1.783 4.46)">
    <ellipse id="Ellipse_633" data-name="Ellipse 633" cx="8.813" cy="8.813" rx="8.813" ry="8.813" transform="translate(0)" fill="url(#linear-gradient-2)"/>
    <path id="Path_4988" data-name="Path 4988" d="M120.4,112.582a7.8,7.8,0,0,1-2.7,5.908c-1.372,1.191-3.164,1.184-5.124,1.184-1.94,0-3.715.022-5.082-1.148a7.82,7.82,0,1,1,12.9-5.943Z" transform="translate(-103.769 -103.769)" fill="url(#linear-gradient-3)"/>
    <path id="Path_4989" data-name="Path 4989" d="M190.231,127.937a3.511,3.511,0,0,0-3.575,3.575,3.581,3.581,0,0,0,1.122,2.725l6.308,6.308c.264-.178,1.011.121,1.251-.087a7.8,7.8,0,0,0,2.7-5.908q0-.215-.012-.426l-5.065-5.065A3.581,3.581,0,0,0,190.231,127.937Z" transform="translate(-181.4 -125.737)" fill="url(#linear-gradient-4)"/>
    <ellipse id="Ellipse_634" data-name="Ellipse 634" cx="3.667" cy="3.667" rx="3.667" ry="3.667" transform="translate(5.146 2.09)" fill="url(#linear-gradient-5)"/>
    <path id="Path_4990" data-name="Path 4990" d="M156.2,289.39a1.76,1.76,0,0,1,.192,2.82l-.031.026a7.819,7.819,0,0,1-10.092-.034l-.016-.014a1.759,1.759,0,0,1,.2-2.815,9.066,9.066,0,0,1,9.743.016Z" transform="translate(-142.518 -277.433)" fill="url(#linear-gradient-6)"/>
  </g>
</svg>
